<mxfile host="app.diagrams.net" modified="2024-04-10T15:52:53.995Z" agent="Mozilla/5.0 (Macintosh; Intel Mac OS X 10_15_7) AppleWebKit/605.1.15 (KHTML, like Gecko) Version/16.6 Safari/605.1.15" etag="2eZe9YxW0cbHlcfqOCUO" version="24.2.3" type="github">
  <diagram name="Page-1" id="N7u0z8TMINf3_eFH5QEq">
    <mxGraphModel dx="1867" dy="1225" grid="0" gridSize="10" guides="1" tooltips="1" connect="1" arrows="1" fold="1" page="0" pageScale="1" pageWidth="850" pageHeight="1100" math="0" shadow="0">
      <root>
        <mxCell id="0" />
        <mxCell id="1" parent="0" />
        <mxCell id="NCIhUn9P71gIISe_7-3E-1" value="" style="shape=stencil(lVjLctw2EPyavU4BmMHr7Dj/4SrL0VYUySXLSfz3bmQDhhhy2/GNy0UTmGf34KLvvjx++PxwSeHL2+vL7w9/XT++PV70l0tK1+fHh9frG54u+v6i7z69vD789vry9fnj7ffnD2PlePrj5c/xhb9vuBQkxIFK4dvtjeFN+efNrzfA0/V5B4hVWl4AijeJAIqorYAkoRNAk6gLIBWJ+T4ANmhaAUmM2JB0fm8CsGclNqQ6fbIBTIzYoFFstSEGyUYARXJfAEV6uL/eVOq6XumBcpS4xjnOwJ+uL0FiW9YjLch5apDkPCSFxKzhc3VZX6WQ87QmbbU3Zun1PqBnqesG8GhhgD4duKuEf4N4nqdhc8lEZJVEgtCrqAtyESNe6psTNy/1GcdzNyGz1x2G4wigRkmrDR2ZSGonZ0lrse38cJ7aqK01leDqSGphlKc7E7Kd9SQEam0xLYuRIyVpa3XWMtPxdP0h0MWkkO+HWbu7xGjk+1nimqso78B6qs52teuprPyTia6JhDcs89CPHC+g8bN6sybFNYAknZSPdVH1gMqchCjYAdAooIbDkRgAxeB4QSd53QMU9QBGhgA0dyREhhkdpZoHdH4kc3HIlAzhpd48oDEqCfPEGwD8THZApMsBkHgu9eMO5EgAOI0x2IF4yaBZDoDMsrXOv3cAVqIA2CFwLA5jB2e0cgmAgkwewLoevGSH9A68ROOhgBrboU+y2ZcoTz5HuqNEyQ5I79C8DYkQHAA+cEqVyag4FwejyTcAzQMq38FHOotyo+Ohpn/gVqcmUUBMc/80AKRuq9EgPUZx0HdepFeafOAbR1nKKQt84iYZm4PEHdJ1ijUbHTNsxmgTAUrZZNNRm8gwSaQnjUReXdpQPCS1cSKniXugTUy71xlQyYXRlZ2pQ2JDaZKd1lNqA/SsA7QyWftc4VY/WdU61dx5WiTvpZLnCHtvclCXGLyvdvMjsUFIsCOBo10tNMoNbeOa3cDKAgc963VGpNWGwDkyKbP3n6+P/kTGpZX6rlro/DnYcK3mRpWYHSYlGGzkQFoPkgGangF0Dqi7GCQSNA1T5OyuJRIJGhpicz31B2OM+TkDezJuA8CxJ3qqEqPTJqM2QJkFew4oXhzC0Yyfx1QePIDJzwFYMw9cxK4OAHAdA32Q0e1ITfMApiZHmNz8FmjyIQ61eACTPRiJXRyQ8JHRrfobq9GTGCD5C58BYG6Nnp+HDWyH4AsIAJpLP3s3+T8AePjvKvTT9enpdpO6/99fneLV7dpV338H);lineShape=1;strokeColor=default;" vertex="1" parent="1">
          <mxGeometry x="-645.8738397962697" y="341.3569304984701" width="76.35338220041179" height="94.74931936888272" as="geometry" />
        </mxCell>
      </root>
    </mxGraphModel>
  </diagram>
</mxfile>
